<?xml version="1.0" encoding="utf-8" ?>
<svg baseProfile="tiny" class="clock-dial" height="320" version="1.2" width="320" xmlns="http://www.w3.org/2000/svg" xmlns:ev="http://www.w3.org/2001/xml-events" xmlns:xlink="http://www.w3.org/1999/xlink"><defs><polygon id="id1" points="7.499999999999999,-12.99038105676658 15.0,-3.3306690738754696e-15 7.500000000000005,12.990381056766577 -7.4999999999999964,12.990381056766582 -15.0,8.49830834647197e-15 -7.499999999999995,-12.990381056766582" /></defs><g transform="translate(135,135)"><g class="hours-ring"><path class="pos0" d="M 8.266365894244634e-15 -135.0 A 135 135 0.6283185307179586 0,1 79.35100905948389 -109.21729424061789 L 70.53423027509679 -97.08203932499369 A 120 120 0.6283185307179586 0,0 7.34788079488412e-15 -120.0 Z" /><path class="pos1" d="M 79.35100905948389 -109.21729424061789 A 135 135 0.6283185307179586 0,1 128.3926296998457 -41.717294240617896 L 114.12678195541842 -37.08203932499369 A 120 120 0.6283185307179586 0,0 70.53423027509679 -97.08203932499369 Z" /><path class="pos2" d="M 128.3926296998457 -41.717294240617896 A 135 135 0.6283185307179586 0,1 128.3926296998457 41.717294240617896 L 114.12678195541842 37.08203932499369 A 120 120 0.6283185307179586 0,0 114.12678195541842 -37.08203932499369 Z" /><path class="pos3" d="M 128.3926296998457 41.717294240617896 A 135 135 0.6283185307179586 0,1 79.35100905948389 109.21729424061789 L 70.53423027509679 97.08203932499369 A 120 120 0.6283185307179586 0,0 114.12678195541842 37.08203932499369 Z" /><path class="pos4" d="M 79.35100905948389 109.21729424061789 A 135 135 0.6283185307179586 0,1 8.266365894244634e-15 135.0 L 7.34788079488412e-15 120.0 A 120 120 0.6283185307179586 0,0 70.53423027509679 97.08203932499369 Z" /><path class="pos5" d="M 8.266365894244634e-15 135.0 A 135 135 0.6283185307179586 0,1 -79.35100905948386 109.2172942406179 L -70.53423027509676 97.0820393249937 A 120 120 0.6283185307179586 0,0 7.34788079488412e-15 120.0 Z" /><path class="pos6" d="M -79.35100905948386 109.2172942406179 A 135 135 0.6283185307179586 0,1 -128.3926296998457 41.71729424061791 L -114.12678195541842 37.0820393249937 A 120 120 0.6283185307179586 0,0 -70.53423027509676 97.0820393249937 Z" /><path class="pos7" d="M -128.3926296998457 41.71729424061791 A 135 135 0.6283185307179586 0,1 -128.39262969984574 -41.71729424061788 L -114.12678195541844 -37.08203932499367 A 120 120 0.6283185307179586 0,0 -114.12678195541842 37.0820393249937 Z" /><path class="pos8" d="M -128.39262969984574 -41.71729424061788 A 135 135 0.6283185307179586 0,1 -79.35100905948389 -109.21729424061789 L -70.53423027509679 -97.08203932499369 A 120 120 0.6283185307179586 0,0 -114.12678195541844 -37.08203932499367 Z" /><path class="pos9" d="M -79.35100905948389 -109.21729424061789 A 135 135 0.6283185307179586 0,1 -2.4799097682733902e-14 -135.0 L -2.2043642384652355e-14 -120.0 A 120 120 0.6283185307179586 0,0 -70.53423027509679 -97.08203932499369 Z" /></g><g class="minutes-ring"><g class="pos0" transform="translate(4.772588574262081e-15,-77.94228634059948)"><use class="floret-center" xlink:href="#id1" /><use class="pos0" transform="translate(1.5908628580873604e-15,-25.98076211353316)" xlink:href="#id1" /><use class="pos1" transform="translate(22.5,-12.99038105676658)" xlink:href="#id1" /><use class="pos2" transform="translate(22.500000000000004,12.990381056766577)" xlink:href="#id1" /><use class="pos3" transform="translate(1.5908628580873604e-15,25.98076211353316)" xlink:href="#id1" /><use class="pos4" transform="translate(-22.499999999999996,12.990381056766589)" xlink:href="#id1" /><use class="pos5" transform="translate(-22.5,-12.990381056766584)" xlink:href="#id1" /></g><g class="pos1" transform="translate(67.5,-38.97114317029974)"><use class="floret-center" xlink:href="#id1" /><use class="pos0" transform="translate(1.5908628580873604e-15,-25.98076211353316)" xlink:href="#id1" /><use class="pos1" transform="translate(22.5,-12.99038105676658)" xlink:href="#id1" /><use class="pos2" transform="translate(22.500000000000004,12.990381056766577)" xlink:href="#id1" /><use class="pos3" transform="translate(1.5908628580873604e-15,25.98076211353316)" xlink:href="#id1" /><use class="pos4" transform="translate(-22.499999999999996,12.990381056766589)" xlink:href="#id1" /><use class="pos5" transform="translate(-22.5,-12.990381056766584)" xlink:href="#id1" /></g><g class="pos2" transform="translate(67.5,38.971143170299726)"><use class="floret-center" xlink:href="#id1" /><use class="pos0" transform="translate(1.5908628580873604e-15,-25.98076211353316)" xlink:href="#id1" /><use class="pos1" transform="translate(22.5,-12.99038105676658)" xlink:href="#id1" /><use class="pos2" transform="translate(22.500000000000004,12.990381056766577)" xlink:href="#id1" /><use class="pos3" transform="translate(1.5908628580873604e-15,25.98076211353316)" xlink:href="#id1" /><use class="pos4" transform="translate(-22.499999999999996,12.990381056766589)" xlink:href="#id1" /><use class="pos5" transform="translate(-22.5,-12.990381056766584)" xlink:href="#id1" /></g><g class="pos3" transform="translate(4.772588574262081e-15,77.94228634059948)"><use class="floret-center" xlink:href="#id1" /><use class="pos0" transform="translate(1.5908628580873604e-15,-25.98076211353316)" xlink:href="#id1" /><use class="pos1" transform="translate(22.5,-12.99038105676658)" xlink:href="#id1" /><use class="pos2" transform="translate(22.500000000000004,12.990381056766577)" xlink:href="#id1" /><use class="pos3" transform="translate(1.5908628580873604e-15,25.98076211353316)" xlink:href="#id1" /><use class="pos4" transform="translate(-22.499999999999996,12.990381056766589)" xlink:href="#id1" /><use class="pos5" transform="translate(-22.5,-12.990381056766584)" xlink:href="#id1" /></g><g class="pos4" transform="translate(-67.49999999999999,38.97114317029977)"><use class="floret-center" xlink:href="#id1" /><use class="pos0" transform="translate(1.5908628580873604e-15,-25.98076211353316)" xlink:href="#id1" /><use class="pos1" transform="translate(22.5,-12.99038105676658)" xlink:href="#id1" /><use class="pos2" transform="translate(22.500000000000004,12.990381056766577)" xlink:href="#id1" /><use class="pos3" transform="translate(1.5908628580873604e-15,25.98076211353316)" xlink:href="#id1" /><use class="pos4" transform="translate(-22.499999999999996,12.990381056766589)" xlink:href="#id1" /><use class="pos5" transform="translate(-22.5,-12.990381056766584)" xlink:href="#id1" /></g><g class="pos5" transform="translate(-67.5,-38.97114317029975)"><use class="floret-center" xlink:href="#id1" /><use class="pos0" transform="translate(1.5908628580873604e-15,-25.98076211353316)" xlink:href="#id1" /><use class="pos1" transform="translate(22.5,-12.99038105676658)" xlink:href="#id1" /><use class="pos2" transform="translate(22.500000000000004,12.990381056766577)" xlink:href="#id1" /><use class="pos3" transform="translate(1.5908628580873604e-15,25.98076211353316)" xlink:href="#id1" /><use class="pos4" transform="translate(-22.499999999999996,12.990381056766589)" xlink:href="#id1" /><use class="pos5" transform="translate(-22.5,-12.990381056766584)" xlink:href="#id1" /></g></g><g class="seconds-ring"><use class="pos0" transform="translate(7.954314290436801e-15,-129.9038105676658)" xlink:href="#id1" /></g><g class="subsecond-units-ring"><use class="floret-center" xlink:href="#id1" /><use class="pos0" transform="translate(1.5908628580873604e-15,-25.98076211353316)" xlink:href="#id1" /><use class="pos1" transform="translate(22.5,-12.99038105676658)" xlink:href="#id1" /><use class="pos2" transform="translate(22.500000000000004,12.990381056766577)" xlink:href="#id1" /><use class="pos3" transform="translate(1.5908628580873604e-15,25.98076211353316)" xlink:href="#id1" /><use class="pos4" transform="translate(-22.499999999999996,12.990381056766589)" xlink:href="#id1" /><use class="pos5" transform="translate(-22.5,-12.990381056766584)" xlink:href="#id1" /></g><g class="subsecond-hexes-ring"><use class="pos0" transform="translate(22.500000000000004,-38.97114317029974)" xlink:href="#id1" /><use class="pos1" transform="translate(45.0,0.0)" xlink:href="#id1" /><use class="pos2" transform="translate(22.500000000000004,38.97114317029974)" xlink:href="#id1" /><use class="pos3" transform="translate(-22.500000000000004,38.97114317029974)" xlink:href="#id1" /><use class="pos4" transform="translate(-45.0,5.5109105961630896e-15)" xlink:href="#id1" /><use class="pos5" transform="translate(-22.499999999999986,-38.97114317029975)" xlink:href="#id1" /></g></g></svg>