<?xml version="1.0" encoding="UTF-8" standalone="no"?> <!-- Created with Vectornator for iOS (http://vectornator.io/) --><!DOCTYPE svg PUBLIC "-//W3C//DTD SVG 1.1//EN" "http://www.w3.org/Graphics/SVG/1.1/DTD/svg11.dtd">
<svg height="100%" style="fill-rule:evenodd;clip-rule:evenodd;stroke-linecap:round;stroke-linejoin:round;" xmlns:xlink="http://www.w3.org/1999/xlink" xmlns="http://www.w3.org/2000/svg" xml:space="preserve" width="100%" xmlns:vectornator="http://vectornator.io" version="1.1" viewBox="0 0 100 100">
<metadata>
<vectornator:setting key="DimensionsVisible" value="1"/>
<vectornator:setting key="SnapToGrid" value="0"/>
<vectornator:setting key="SnapToPoints" value="0"/>
<vectornator:setting key="GuidesVisible" value="1"/>
<vectornator:setting key="RulersVisible" value="1"/>
<vectornator:setting key="CMYKEnabledKey" value="0"/>
<vectornator:setting key="SnapToEdges" value="1"/>
<vectornator:setting key="DisplayWhiteBackground" value="1"/>
<vectornator:setting key="SnapToGuides" value="1"/>
<vectornator:setting key="GridSpacing" value="2.5"/>
<vectornator:setting key="Units" value="Pixels"/>
<vectornator:setting key="DynamicGuides" value="0"/>
<vectornator:setting key="New" value="1"/>
</metadata>
<defs/>
<g id="honey11" vectornator:layerName="honey11">
<path stroke="#000000" stroke-width="5" d="M15+2.5C14.9957+2.99942+15+2.5+17.5+60C17.8258+67.4929+17.5+80+27.5+90C34.9055+97.4055+42.9888+100+50+100C57.3854+100+64.7727+97.7273+72.5+90C82.5+80+82.0656+69.9906+82.5+60L83.1518+45.0089L85+2.5C85+2.5+66.7325+0.0645175+50+0C31.7958-0.0701922+15.0023+2.23977+15+2.5Z" fill="#000598" stroke-linecap="round" fill-opacity="0" opacity="1" stroke-linejoin="round"/>
<path stroke="#000000" stroke-width="5" d="M17.5+45C17.5+45+33.75+42.5+50+42.5C66.25+42.5+82.5+45+82.5+45" fill="#000598" stroke-linecap="round" fill-opacity="0" opacity="1" stroke-linejoin="round"/>
<path stroke="#000000" stroke-width="5" d="M37.6137+0.290141L37.5+22.5C37.5+22.5+43.8466+21.8412+50.0966+21.8412C56.3466+21.8412+62.5+22.5+62.5+22.5L62.5+67.5C62.5+67.5+56.5098+66.8135+50.2598+66.8135C44.0098+66.8135+37.5+67.5+37.5+67.5L37.5+96.7232" fill="#000598" stroke-linecap="round" fill-opacity="0" opacity="1" stroke-linejoin="round"/>
</g>
<g id="honey10" vectornator:layerName="honey10">
<path stroke="#000000" stroke-width="5" d="M15+2.5C14.9957+2.99942+15+2.5+17.5+60C17.8258+67.4929+17.5+80+27.5+90C34.9055+97.4055+42.9888+100+50+100C57.3854+100+64.7727+97.7273+72.5+90C82.5+80+82.0656+69.9906+82.5+60L83.1518+45.0089L85+2.5C85+2.5+66.7325+0.0645175+50+0C31.7958-0.0701922+15.0023+2.23977+15+2.5Z" fill="#000598" stroke-linecap="round" fill-opacity="0" opacity="1" stroke-linejoin="round"/>
<path stroke="#000000" stroke-width="5" d="M17.5+45C17.5+45+33.75+42.5+50+42.5C66.25+42.5+82.5+45+82.5+45" fill="#000598" stroke-linecap="round" fill-opacity="0" opacity="1" stroke-linejoin="round"/>
<path stroke="#000000" stroke-width="5" d="M37.6137+0.290141L37.5+22.5C37.5+22.5+43.9282+21.7595+50.1782+21.7595C56.4282+21.7595+62.5+22.5+62.5+22.5L62.5+42.5" fill="#000598" stroke-linecap="round" fill-opacity="0" opacity="1" stroke-linejoin="round"/>
</g>
<g id="honey9" vectornator:layerName="honey9">
<path stroke="#000000" stroke-width="5" d="M15.0003+2.50157C14.996+3.00099+15.0003+2.50157+17.5003+60.0016C17.8261+67.4945+17.5003+80.0016+27.5003+90.0016C34.9058+97.4071+42.9891+100.002+50.0003+100.002C57.3857+100.002+64.773+97.7289+72.5003+90.0016C82.5003+80.0016+82.0659+69.9921+82.5003+60.0016L83.1521+45.0105L85.0003+2.50157C85.0003+2.50157+66.7328+0.0660846+50.0003+0.00156701C31.7961-0.0686252+15.0026+2.24134+15.0003+2.50157Z" fill="#000598" stroke-linecap="round" fill-opacity="0" opacity="1" stroke-linejoin="round"/>
<path stroke="#000000" stroke-width="5" d="M16.791+32.7829C45.5933+32.6025+50.1+57.6031+50.1+57.6031C50.1+57.6031+55.1153+32.6066+82.9935+32.9977" fill="#000598" stroke-linecap="round" fill-opacity="0" opacity="1" stroke-linejoin="round"/>
</g>
<g id="honey8" vectornator:layerName="honey8">
<path stroke="#000000" stroke-width="5" d="M15+2.5C14.9957+2.99942+15+2.5+17.5+60C17.8258+67.4929+17.5+80+27.5+90C34.9055+97.4055+42.9888+100+50+100C57.3854+100+64.7727+97.7273+72.5+90C82.5+80+82.0656+69.9906+82.5+60L83.1518+45.0089L85+2.5C85+2.5+66.7325+0.0645175+50+0C31.7958-0.0701922+15.0023+2.23977+15+2.5Z" fill="#000598" stroke-linecap="round" fill-opacity="0" opacity="1" stroke-linejoin="round"/>
<path stroke="#000000" stroke-width="5" d="M30+45C30+33.9543+38.9543+25+50+25C61.0457+25+70+33.9543+70+45C70+56.0457+61.0457+65+50+65C38.9543+65+30+56.0457+30+45Z" fill="#000598" stroke-linecap="round" fill-opacity="0" opacity="1" stroke-linejoin="round"/>
<path stroke="#000000" stroke-width="5" d="M45+44.7796C45+42.1399+47.1858+40+49.8821+40C52.5784+40+54.7642+42.1399+54.7642+44.7796C54.7642+47.4192+52.5784+49.5591+49.8821+49.5591C47.1858+49.5591+45+47.4192+45+44.7796Z" fill="#000000" stroke-linecap="round" opacity="1" stroke-linejoin="round"/>
</g>
<g id="honey7" vectornator:layerName="honey7">
<path stroke="#000000" stroke-width="5" d="M15.0003+2.5C14.996+2.99942+15.0003+2.5+17.5003+60C17.8261+67.4929+17.5003+80+27.5003+90C34.9058+97.4055+42.9891+100+50.0003+100C57.3857+100+64.773+97.7273+72.5003+90C82.5003+80+82.0659+69.9906+82.5003+60L83.1521+45.0089L85.0003+2.5C85.0003+2.5+66.7328+0.0645175+50.0003+3.55271e-15C31.7961-0.0701922+15.0026+2.23977+15.0003+2.5Z" fill="#000598" stroke-linecap="round" fill-opacity="0" opacity="1" stroke-linejoin="round"/>
<path stroke="#000000" stroke-width="5" d="M42.5+27.5C42.5+23.3579+45.8579+20+50+20C54.1421+20+57.5+23.3579+57.5+27.5C57.5+31.6421+54.1421+35+50+35C45.8579+35+42.5+31.6421+42.5+27.5Z" fill="#000000" stroke-linecap="round" fill-opacity="0" opacity="1" stroke-linejoin="round"/>
<path stroke="#000000" stroke-width="5" d="M42.5+62.5C42.5+58.3579+45.8579+55+50+55C54.1421+55+57.5+58.3579+57.5+62.5C57.5+66.6421+54.1421+70+50+70C45.8579+70+42.5+66.6421+42.5+62.5Z" fill="#000000" stroke-linecap="round" fill-opacity="0" opacity="1" stroke-linejoin="round"/>
</g>
<g id="honey6" vectornator:layerName="honey6">
<path stroke="#000000" stroke-width="5" d="M15+2.5C14.9957+2.99942+15+2.5+17.5+60C17.8258+67.4929+17.5+80+27.5+90C34.9055+97.4055+42.9888+100+50+100C57.3854+100+64.7727+97.7273+72.5+90C82.5+80+82.0656+69.9906+82.5+60L83.1518+45.0089L85+2.5C85+2.5+66.7325+0.0645175+50+0C31.7958-0.0701922+15.0023+2.23977+15+2.5Z" fill="#000598" stroke-linecap="round" fill-opacity="0" opacity="1" stroke-linejoin="round"/>
<path stroke="#000000" stroke-width="5" d="M34.9145+0.976128L35.4656+94.9264L39.669+97.6448L40+0.40994L34.9145+0.976128Z" fill="#000000" stroke-linecap="round" opacity="1" stroke-linejoin="round"/>
<path stroke="#000000" stroke-width="5" d="M65.0855+0.976128L64.9655+95.9694L60.1882+98.2592L60+0.40994L65.0855+0.976128Z" fill="#000000" stroke-linecap="round" opacity="1" stroke-linejoin="round"/>
</g>
<g id="honey5" vectornator:layerName="honey5">
<path stroke="#000000" stroke-width="5" d="M15+2.5C14.9957+2.99942+15+2.5+17.5+60C17.8258+67.4929+17.5+80+27.5+90C34.9055+97.4055+42.9888+100+50+100C57.3854+100+64.7727+97.7273+72.5+90C82.5+80+82.0656+69.9906+82.5+60L83.1518+45.0089L85+2.5C85+2.5+66.7325+0.0645175+50+0C31.7958-0.0701922+15.0023+2.23977+15+2.5Z" fill="#000598" stroke-linecap="round" fill-opacity="0" opacity="1" stroke-linejoin="round"/>
<path stroke="#000000" stroke-width="1" d="M40+45C40+38.0964+44.4772+32.5+50+32.5C55.5228+32.5+60+38.0964+60+45C60+51.9036+55.5228+57.5+50+57.5C44.4772+57.5+40+51.9036+40+45Z" fill="#000000" stroke-linecap="round" opacity="1" stroke-linejoin="round"/>
</g>
<g id="honey4" vectornator:layerName="honey4">
<path stroke="#000000" stroke-width="5" d="M15+2.5C14.9957+2.99942+15+2.5+17.5+60C17.8258+67.4929+17.5+80+27.5+90C34.9055+97.4055+42.9888+100+50+100C57.3854+100+64.7727+97.7273+72.5+90C82.5+80+82.0656+69.9906+82.5+60L83.1518+45.0089L85+2.5C85+2.5+66.7325+0.0645175+50+0C31.7958-0.0701922+15.0023+2.23977+15+2.5Z" fill="#000598" stroke-linecap="round" fill-opacity="0" opacity="1" stroke-linejoin="round"/>
<path stroke="#000000" stroke-width="5" d="M17.5+45C17.5+45+22.2525+32.5+35+32.5C47.5+32.5+52.5+52.5+65+52.5C77.7475+52.5+82.5+45+82.5+45" fill="#000598" stroke-linecap="round" fill-opacity="0" opacity="1" stroke-linejoin="round"/>
</g>
<g id="honey3" vectornator:layerName="honey3">
<path stroke="#000000" stroke-width="5" d="M15+2.5C14.9957+2.99942+15+2.5+17.5+60C17.8258+67.4929+17.5+80+27.5+90C34.9055+97.4055+42.9888+100+50+100C57.3854+100+64.7727+97.7273+72.5+90C82.5+80+82.0656+69.9906+82.5+60L83.1518+45.0089L85+2.5C85+2.5+66.7325+0.0645175+50+0C31.7958-0.0701922+15.0023+2.23977+15+2.5Z" fill="#000598" stroke-linecap="round" fill-opacity="0" opacity="1" stroke-linejoin="round"/>
<path stroke="#000000" stroke-width="5" d="M30+0L32.5+57.5C32.5+70+40+80+50+80C60+80+70+67.5+70+57.5C70+50+67.5+40+60+40C50+40+42.5+47.5+50+57.5" fill="#000598" stroke-linecap="round" fill-opacity="0" opacity="1" stroke-linejoin="round"/>
</g>
<g id="honey2" vectornator:layerName="honey2">
<path stroke="#000000" stroke-width="5" d="M15+2.5C14.9957+2.99942+15+2.5+17.5+60C17.8258+67.4929+17.5+80+27.5+90C34.9055+97.4055+42.9888+100+50+100C57.3854+100+64.7727+97.7273+72.5+90C82.5+80+82.0656+69.9906+82.5+60L83.1518+45.0089L85+2.5C85+2.5+66.7325+0.0645175+50+0C31.7958-0.0701922+15.0023+2.23977+15+2.5Z" fill="#000598" stroke-linecap="round" fill-opacity="0" opacity="1" stroke-linejoin="round"/>
<path stroke="#000000" stroke-width="5" d="M35+77.5L65+47.5" fill="#000598" stroke-linecap="round" fill-opacity="0" opacity="1" stroke-linejoin="round"/>
<path stroke="#000000" stroke-width="5" d="M35+47.5L52.0233+30.4767L65+17.5" fill="#000598" stroke-linecap="round" fill-opacity="0" opacity="1" stroke-linejoin="round"/>
</g>
<g id="honey1" vectornator:layerName="honey1">
<path stroke="#000000" stroke-width="5" d="M15+2.5C14.9957+2.99942+15+2.5+17.5+60C17.8258+67.4929+17.5+80+27.5+90C34.9055+97.4055+42.9888+100+50+100C57.3854+100+64.7727+97.7273+72.5+90C82.5+80+82.0656+69.9906+82.5+60L83.1518+45.0089L85+2.5C85+2.5+66.7325+0.0645175+50+0C31.7958-0.0701922+15.0023+2.23977+15+2.5Z" fill="#000598" stroke-linecap="round" fill-opacity="0" opacity="1" stroke-linejoin="round"/>
<path stroke="#000000" stroke-width="5" d="M37.6137+0.290141L37.6904+42.8396C37.6904+42.8396+43.75+42.5+50+42.5C56.25+42.5+62.7476+42.9213+62.7476+42.9213L62.5+97.5" fill="#000598" stroke-linecap="round" fill-opacity="0" opacity="1" stroke-linejoin="round"/>
</g>
<g id="honey0" vectornator:layerName="honey0">
<path stroke="#000000" stroke-width="5" d="M15+2.5C14.9957+2.99942+15+2.5+17.5+60C17.8258+67.4929+17.5+80+27.5+90C34.9055+97.4055+42.9888+100+50+100C57.3854+100+64.7727+97.7273+72.5+90C82.5+80+82.0656+69.9906+82.5+60L83.1518+45.0089L85+2.5C85+2.5+66.7325+0.0645175+50+0C31.7958-0.0701922+15.0023+2.23977+15+2.5Z" fill="#000598" stroke-linecap="round" fill-opacity="0" opacity="1" stroke-linejoin="round"/>
</g>
</svg>
