<?xml version="1.0" encoding="UTF-8" standalone="no"?> <!-- Created with Vectornator for iOS (http://vectornator.io/) --><!DOCTYPE svg PUBLIC "-//W3C//DTD SVG 1.1//EN" "http://www.w3.org/Graphics/SVG/1.1/DTD/svg11.dtd">
<svg height="100%" style="fill-rule:evenodd;clip-rule:evenodd;stroke-linecap:round;stroke-linejoin:round;" xmlns:xlink="http://www.w3.org/1999/xlink" xmlns="http://www.w3.org/2000/svg" xml:space="preserve" width="100%" xmlns:vectornator="http://vectornator.io" version="1.1" viewBox="0 0 100 100">
<metadata>
<vectornator:setting key="DimensionsVisible" value="1"/>
<vectornator:setting key="SnapToGrid" value="1"/>
<vectornator:setting key="IsolateActiveLayer" value="1"/>
<vectornator:setting key="SnapToPoints" value="0"/>
<vectornator:setting key="GuidesVisible" value="1"/>
<vectornator:setting key="RulersVisible" value="1"/>
<vectornator:setting key="CMYKEnabledKey" value="0"/>
<vectornator:setting key="SnapToEdges" value="0"/>
<vectornator:setting key="DisplayWhiteBackground" value="1"/>
<vectornator:setting key="SnapToGuides" value="1"/>
<vectornator:setting key="GridSpacing" value="5"/>
<vectornator:setting key="Units" value="Pixels"/>
<vectornator:setting key="DynamicGuides" value="0"/>
<vectornator:setting key="New" value="1"/>
</metadata>
<defs/>
<g id="letter29" vectornator:layerName="letter29">
<path stroke="#000000" stroke-width="1.02" d="M45+90C45+90+15+85+15+50C15+15+45+10+45+10" fill="none" stroke-linecap="round" opacity="1" stroke-linejoin="round"/>
<path stroke="#000000" stroke-width="1.02" d="M35+50L85+50" fill="none" stroke-linecap="round" opacity="1" stroke-linejoin="round"/>
</g>
<g id="letter28" vectornator:layerName="letter28">
<path stroke="#000000" stroke-width="1.02" d="M50+10C50+10+25+30+25+50C25+65+35+70+50+70C65+70+75+60.3078+75+50C75+40+70+35.094+62.5729+35.0474C55+35+50+40+50+55C50+69.0931+50+90+50+90" fill="none" stroke-linecap="round" opacity="1" stroke-linejoin="round"/>
</g>
<g id="letter27" vectornator:layerName="letter27">
<path stroke="#000000" stroke-width="1.02" d="M30+10C30+15+30+35+30+45C30+45+39.9222+45+50+45C60+45+70+45+70+45C70+45+70+60+70+70C70+80+60.0629+89.6476+50.0629+89.6476C40.0629+89.6476+30+80+30+70C30+61.6863+35+60+35+60" fill="none" stroke-linecap="round" opacity="1" stroke-linejoin="round"/>
<path stroke="#000000" stroke-width="1.02" d="M70+10L70+45" fill="none" stroke-linecap="round" opacity="1" stroke-linejoin="round"/>
</g>
<g id="letter26" vectornator:layerName="letter26">
<path stroke="#000000" stroke-width="1.02" d="M70+25C70+15+60+10+50+10C39.9222+10+30+20+30+30C30+40+39.9222+50+50+50C60+50+70+40+70+40C70+40+70+60+70+70C70+80+60.0629+89.6476+50.0629+89.6476C40.0629+89.6476+30+80+30+70C30+61.6863+35+60+35+60" fill="none" stroke-linecap="round" opacity="1" stroke-linejoin="round"/>
</g>
<g id="letter25" vectornator:layerName="letter25">
<path stroke="#000000" stroke-width="1.02" d="M10+10L90+10C90+10+90+65+90+75C90+85+85+90+75+90C65+90+60+85+60+75" fill="none" stroke-linecap="round" opacity="1" stroke-linejoin="round"/>
</g>
<g id="letter24" vectornator:layerName="letter24">
<path stroke="#000000" stroke-width="1.02" d="M50+15C40+15+37.3026+24.8975+37.52+34.8951C37.8472+49.9466+60+85+75+85C80+85+90+85+90+75C90+60+75+55+50+55C25+55+10+60+10+75C10+85+20+85+25+85C40+85+62.7149+49.7285+62.7149+35.0042C62.7149+25.0042+60+15+50+15Z" fill="none" stroke-linecap="round" opacity="1" stroke-linejoin="round"/>
</g>
<g id="letter23" vectornator:layerName="letter23">
<path stroke="#000000" stroke-width="1.02" d="M20+10L20+50L45+70L20+90L80+90L80+10" fill="none" stroke-linecap="round" opacity="1" stroke-linejoin="round"/>
</g>
<g id="letter22" vectornator:layerName="letter22">
<path stroke="#000000" stroke-width="1.02" d="M15+30C15+30+25+10+50+10C75+10+90+25+90+50C90+70+75+90+50+90C25+90+10+75+10+50C10+50+15+40+40+40C80+40+90+90+90+90" fill="none" stroke-linecap="round" opacity="1" stroke-linejoin="round"/>
</g>
<g id="letter21" vectornator:layerName="letter21">
<path stroke="#000000" stroke-width="1.02" d="M70+10L30+10L30+45C30+45+39.6922+35+50+35C60+35+70+40+70+50C70+57.5+60.172+62.7076+50.172+62.7076C39.492+62.7076+45.0457+62.7076+45.0457+62.7076C45.0457+62.7076+47.9667+62.7566+50.172+62.7076C59.9882+62.4895+70+67.5+70+75C70+85+60+90+50+90C39.6922+90+30+80+30+80" fill="none" stroke-linecap="round" opacity="1" stroke-linejoin="round"/>
</g>
<g id="letter20" vectornator:layerName="letter20">
<path stroke="#000000" stroke-width="1.02" d="M30+10C30+10+30+45+50+45C70+45+70+10+70+10L70+60C70+60+60+55+50+55C39.8564+55+30+60+30.2124+72.742C30.4167+85.0001+39.7288+90+50+90C60+90+70+85+70+85" fill="none" stroke-linecap="round" opacity="1" stroke-linejoin="round"/>
</g>
<g id="letter19" vectornator:layerName="letter19">
<path stroke="#000000" stroke-width="1.02" d="M10+90L10+10L90+10C90+10+90+65+90+75C90+85+85+90+75+90C65+90+60+85+60+75" fill="none" stroke-linecap="round" opacity="1" stroke-linejoin="round"/>
</g>
<g id="letter18" vectornator:layerName="letter18">
<path stroke="#000000" stroke-width="1.02" d="M15+90L45+90L45+60C45+60+85+60+85+10" fill="none" stroke-linecap="round" opacity="1" stroke-linejoin="round"/>
</g>
<g id="letter17" vectornator:layerName="letter17">
<path stroke="#000000" stroke-width="1.02" d="M10+90L30+10C30+10+35+40+45+40C55+40+60+10+60+10C60+10+65+40+75+40C85+40+90+10+90+10" fill="none" stroke-linecap="round" opacity="1" stroke-linejoin="round"/>
</g>
<g id="letter16" vectornator:layerName="letter16">
<path stroke="#000000" stroke-width="1.02" d="M10+10L90+10L90+90" fill="none" stroke-linecap="round" opacity="1" stroke-linejoin="round"/>
</g>
<g id="letter15" vectornator:layerName="letter15">
<path stroke="#000000" stroke-width="1.02" d="M10+65C10+55+20+40+35+40C50+40+50+65+65+65C80+65+90+55+90+40" fill="none" stroke-linecap="round" opacity="1" stroke-linejoin="round"/>
</g>
<g id="letter14" vectornator:layerName="letter14">
<path stroke="#000000" stroke-width="1.02" d="M10+90L50+10C50+10+90+50+90+75C90+85+83.75+90+75+90C65+90+60+85+60+75" fill="none" stroke-linecap="round" opacity="1" stroke-linejoin="round"/>
</g>
<g id="letter13" vectornator:layerName="letter13">
<path stroke="#000000" stroke-width="1.02" d="M10+40C10+40+15+10+50+10C85+10+90+40+90+40" fill="none" stroke-linecap="round" opacity="1" stroke-linejoin="round"/>
<path stroke="#000000" stroke-width="1.02" d="M40+30C40+30+40+53.1543+40+69.6875C40+75.8529+42.1592+84.3574+48.1162+88.1011C50.0096+89.291+52.2866+90+55+90C66.25+90+70+77.8125+70+69.6875" fill="none" stroke-linecap="round" opacity="1" stroke-linejoin="round"/>
</g>
<g id="letter12" vectornator:layerName="letter12">
<path stroke="#000000" stroke-width="1.02" d="M35+90C35+90+65+75+65+45C65+20+57.5+10+50+10C42.5+10+35+20+35+45C35+75+65+90+65+90" fill="none" stroke-linecap="round" opacity="1" stroke-linejoin="round"/>
</g>
<g id="letter11" vectornator:layerName="letter11">
<path stroke="#000000" stroke-width="1.02" d="M25+10C25+30.1556+25+90+25+90C25+90+35.3691+90+50+90C70+90+75+80+75+70C75+60+70+45+50+45C25+45+25+70+25+70" fill="none" stroke-linecap="round" opacity="1" stroke-linejoin="round"/>
</g>
<g id="letter10" vectornator:layerName="letter10">
<path stroke="#000000" stroke-width="1.02" d="M20+40C20+40+50+40+65+40C75+40+79.9297+32.2711+80+25C80.0699+17.7728+75+10+65+10C57.5+10+50+15+50+25C50+41.6771+50+80+50+90" fill="none" stroke-linecap="round" opacity="1" stroke-linejoin="round"/>
</g>
<g id="letter9" vectornator:layerName="letter9">
<path stroke="#000000" stroke-width="1.02" d="M20+40C20+40+50+40+65+40C75+40+79.9297+32.2711+80+25C80.0699+17.7728+75+10+65+10C57.5+10+50+15+50+25C50+41.6771+50+65+50+75C50+85+42.6703+90.1268+35+90C27.6702+89.8788+20+85+20+75" fill="none" stroke-linecap="round" opacity="1" stroke-linejoin="round"/>
</g>
<g id="letter8" vectornator:layerName="letter8">
<path stroke="#000000" stroke-width="1.02" d="M10+25C10+15+15+10+25+10C35+10+40+15+40+25C40+45.1556+40+90+40+90C40+90+50.3691+90+65+90C85+90+90+80+90+70C90+60+85+45+65+45C40+45+40+70+40+70" fill="none" stroke-linecap="round" opacity="1" stroke-linejoin="round"/>
</g>
<g id="letter7" vectornator:layerName="letter7">
<path stroke="#000000" stroke-width="1.02" d="M10+10C10+10+10+30+10+50C10+70+15+90+30+90C45+90+50+70+50+50C50+30+50+10+50+10C50+10+50+30+50+50C50+70+55+90+70+90C85+90+90+70+90+50C90+30+90+10+90+10" fill="none" stroke-linecap="round" opacity="1" stroke-linejoin="round"/>
</g>
<g id="letter6" vectornator:layerName="letter6">
<path stroke="#000000" stroke-width="1.02" d="M10+65C15+50+20+40+35+40C50+40+50+65+70+65C80+65+90+55+90+45C90+35+80+25+70+25" fill="none" stroke-linecap="round" opacity="1" stroke-linejoin="round"/>
</g>
<g id="letter5" vectornator:layerName="letter5">
<path stroke="#000000" stroke-width="1.02" d="M30.2837+89.9995C30.2837+89.9995+70.2834+89.8577+70.1416+49.8579C69.9997+9.85816+30+10+30+10" fill="none" stroke-linecap="round" opacity="1" stroke-linejoin="round"/>
</g>
<g id="letter4" vectornator:layerName="letter4">
<path stroke="#000000" stroke-width="1.02" d="M10+70C10+70+10+30+50+30C90+30+90+70+90+70" fill="none" stroke-linecap="round" opacity="1" stroke-linejoin="round"/>
</g>
<g id="letter3" vectornator:layerName="letter3">
<path stroke="#000000" stroke-width="1.02" d="M30+10C30+10+30+44.6515+30+65C30+75+35+90+50+90C65+90+70+75+70+65" fill="none" stroke-linecap="round" opacity="1" stroke-linejoin="round"/>
</g>
<g id="letter2" vectornator:layerName="letter2">
<path stroke="#000000" stroke-width="1.02" d="M10+10C10+10+10+35+10+60C10+80+22.6319+90.098+37.6319+90.098C52.6319+90.098+65+80+65+60C65+40+65+40.4616+65+25C65+15+69.9559+10.1468+77.4559+10.1468C84.9559+10.1468+90+15+90+25C90+35.68+90+50+90+50" fill="none" stroke-linecap="round" opacity="1" stroke-linejoin="round"/>
</g>
<g id="letter1" vectornator:layerName="letter1">
<path stroke="#000000" stroke-width="1.02" d="M10+90L30+10C30+10+40.9417+58.3474+45+70C48.3611+79.6508+55+90+65+90C75+90+82.115+79.6508+85+70C88.8337+57.1757+90+10+90+10" fill="none" stroke-linecap="round" opacity="1" stroke-linejoin="round"/>
</g>
<g id="letter0" vectornator:layerName="letter0">
<path stroke="#000000" stroke-width="1.02" d="M10+90L20+10L35+40L50+10C50+10+55+60+60+75C63.1623+84.4868+68.75+90+75+90C90+90+90+50+90+10" fill="none" stroke-linecap="round" opacity="1" stroke-linejoin="round"/>
</g>
</svg>
