<?xml version="1.0" encoding="UTF-8" standalone="no"?> <!-- Created with Vectornator for iOS (http://vectornator.io/) --><!DOCTYPE svg PUBLIC "-//W3C//DTD SVG 1.1//EN" "http://www.w3.org/Graphics/SVG/1.1/DTD/svg11.dtd">
<svg height="100%" style="fill-rule:evenodd;clip-rule:evenodd;stroke-linecap:round;stroke-linejoin:round;" xmlns:xlink="http://www.w3.org/1999/xlink" xmlns="http://www.w3.org/2000/svg" xml:space="preserve" width="100%" xmlns:vectornator="http://vectornator.io" version="1.1" viewBox="0 0 100 100">
<metadata>
<vectornator:setting key="DimensionsVisible" value="1"/>
<vectornator:setting key="GridSpacing" value="2.5"/>
<vectornator:setting key="New" value="1"/>
<vectornator:setting key="SnapToPoints" value="0"/>
<vectornator:setting key="OutlineMode" value="0"/>
<vectornator:setting key="RulersVisible" value="1"/>
<vectornator:setting key="CMYKEnabledKey" value="0"/>
<vectornator:setting key="GuidesVisible" value="1"/>
<vectornator:setting key="SnapToEdges" value="0"/>
<vectornator:setting key="DisplayWhiteBackground" value="1"/>
<vectornator:setting key="SnapToGuides" value="1"/>
<vectornator:setting key="Units" value="Pixels"/>
<vectornator:setting key="DynamicGuides" value="0"/>
<vectornator:setting key="IsolateActiveLayer" value="1"/>
<vectornator:setting key="SnapToGrid" value="0"/>
</metadata>
<defs/>
<g id="mythrole8" vectornator:layerName="mythrole8">
<path d="M9.17445+27.434C8.95585+27.0022+18.0097+19.598+18.0097+19.598C18.0097+19.598+21.2226+12.8181+26.8261+7.97424C32.4295+3.13043+40.4235+0.222714+40.4235+0.222714L38.9623+11.0523L42.4674+19.4762C43.5723+24.016+41.9646+27.1625+41.9646+27.1625C41.9646+27.1625+51.7272+31.6863+60.2108+40.1666C68.6944+48.6469+72.0299+55.006+75.899+61.0837C77.7533+63.9964+74.1788+63.3649+74.1788+63.3649L70.06+62.0867C70.06+62.0867+78.7643+71.4317+84.1028+78.5749C89.4413+85.718+91.4021+88.2786+91.4139+90.6594C91.4274+93.3649+86.2996+98.6668+83.3314+97.5177C80.2953+96.3424+76.3306+85.4699+70.9086+80.3721C69.9616+85.6209+67.2593+86.4508+63.7655+80.2995C61.3002+85.0736+56.7054+75.14+56.7054+75.14L50.2089+74.523L52.088+82.4139L47.5816+90.2284L54.401+90.5191L53.6651+94.8516L23.628+94.8422L23.7377+90.506L30.3385+90.0581L36.7837+73.3994C36.7837+73.3994+29.3851+65.7874+26.8527+56.7826C25.0899+50.5144+22.6773+44.1413+25.6719+36.9837C20.8951+33.9772+19.3633+30.63+19.3633+30.63C19.3633+30.63+10.4295+29.9131+9.17445+27.434Z" opacity="1" fill="#000000"/>
<path d="M24.0134+17.93C25.2362+16.6736+27.2461+16.6465+28.5024+17.8694C29.7587+19.0923+29.7859+21.1021+28.563+22.3585C27.3401+23.6148+25.3303+23.6419+24.0739+22.419C22.8176+21.1961+22.7905+19.1863+24.0134+17.93Z" opacity="1" fill="#ffffff"/>
<path d="M36.0912+89.5129L42.273+74.3567L45.2875+75.0274L47.494+81.7222L41.8419+89.5334L36.0912+89.5129Z" opacity="1" fill="#ffffff"/>
</g>
<g id="mythrole7" vectornator:layerName="mythrole7">
<path d="M16.648+5.18421C27.2001+3.72485+36.9373+11.096+38.3967+21.648C39.856+32.2001+32.4849+41.9373+21.9328+43.3967C11.3808+44.856+1.64356+37.4849+0.184205+26.9328C-1.27515+16.3808+6.09595+6.64356+16.648+5.18421Z" opacity="1" fill="#000000"/>
<path d="M78.0672+5.18421C88.6192+3.72485+98.3564+11.096+99.8158+21.648C101.275+32.2001+93.904+41.9373+83.352+43.3967C72.7999+44.856+63.0627+37.4849+61.6033+26.9328C60.144+16.3808+67.5151+6.64356+78.0672+5.18421Z" opacity="1" fill="#000000"/>
<path d="M19.2503+18.0577C23.2193+17.5088+26.8818+20.2813+27.4307+24.2503C27.9796+28.2193+25.2071+31.8818+21.2381+32.4307C17.2691+32.9796+13.6066+30.2071+13.0577+26.2381C12.5088+22.2691+15.2813+18.6066+19.2503+18.0577Z" opacity="1" fill="#ffffff"/>
<path d="M78.7619+18.0577C82.7309+17.5088+86.3934+20.2813+86.9423+24.2503C87.4912+28.2193+84.7187+31.8818+80.7497+32.4307C76.7807+32.9796+73.1182+30.2071+72.5693+26.2381C72.0204+22.2691+74.7929+18.6066+78.7619+18.0577Z" opacity="1" fill="#ffffff"/>
<path d="M44.5243+20.382C66.4069+17.3556+86.5996+32.6416+89.626+54.5243C92.6524+76.4069+77.3664+96.5996+55.4838+99.626C33.6011+102.652+13.4084+87.3664+10.382+65.4837C7.35562+43.6011+22.6416+23.4084+44.5243+20.382Z" opacity="1" fill="#000000"/>
<path stroke="#000000" stroke-width="0.1" d="M85.4156+14.8658C85.4379+14.8627+85.4669+14.9392+85.4803+15.0367C85.4938+15.1342+85.4867+15.2157+85.4645+15.2188C85.4422+15.2219+85.4132+15.1453+85.3997+15.0479C85.3862+14.9504+85.3934+14.8689+85.4156+14.8658Z" fill="#000000" stroke-linecap="round" opacity="1" stroke-linejoin="round"/>
<path d="M33.6433+47.5518C36.7016+47.1413+39.5237+49.2147+39.9466+52.1828C40.3696+55.1509+38.2332+57.8898+35.175+58.3003C32.1168+58.7107+29.2947+56.6374+28.8717+53.6693C28.4488+50.7012+30.5851+47.9623+33.6433+47.5518Z" opacity="1" fill="#ffffff"/>
<path d="M66.3307+47.5518C69.2988+47.1413+72.0377+49.2147+72.4482+52.1828C72.8587+55.1509+70.7853+57.8898+67.8172+58.3003C64.8491+58.7107+62.1102+56.6374+61.6997+53.6693C61.2893+50.7012+63.3626+47.9623+66.3307+47.5518Z" opacity="1" fill="#ffffff"/>
<path d="M47.191+61.5917C58.3865+60.0399+68.7174+67.878+70.2657+79.0987C71.8141+90.3194+63.9936+100.674+52.7981+102.225C41.6026+103.777+31.2716+95.9391+29.7233+84.7184C28.175+73.4977+35.9955+63.1436+47.191+61.5917Z" opacity="1" fill="#ffffff"/>
<path d="M49.4591+67.5518C52.5173+67.1413+55.3394+69.2147+55.7624+72.1828C56.1853+75.1509+54.049+77.8898+50.9907+78.3003C47.9325+78.7107+45.1104+76.6374+44.6875+73.6693C44.2645+70.7012+46.4008+67.9623+49.4591+67.5518Z" opacity="1" fill="#000000"/>
</g>
<g id="mythrole6" vectornator:layerName="mythrole6">
<path stroke="#000000" stroke-width="5" d="M31.4545+20.109L40+30" fill="none" stroke-linecap="round" opacity="1" stroke-linejoin="round"/>
<path stroke="#000000" stroke-width="5" d="M68.228+20.2646L60+30" fill="none" stroke-linecap="round" opacity="1" stroke-linejoin="round"/>
<path stroke="#000000" stroke-width="5" d="M72.5+77.5L60+55" fill="none" stroke-linecap="round" opacity="1" stroke-linejoin="round"/>
<path stroke="#000000" stroke-width="5" d="M77.5+67.5L60+50" fill="none" stroke-linecap="round" opacity="1" stroke-linejoin="round"/>
<path d="M65.144+71.9964C64.7295+85.412+57.6559+95.6946+49.3446+94.9633C41.0332+94.232+34.6316+82.7636+35.046+69.348C35.4605+55.9324+42.5341+45.6498+50.8454+46.3811C59.1568+47.1124+65.5584+58.5808+65.144+71.9964Z" opacity="1" fill="#ffffff"/>
<path d="M59.9014+20.4704C61.9228+25.943+59.1252+32.0181+53.6526+34.0395C48.1801+36.0609+42.105+33.2632+40.0836+27.7907C38.0621+22.3181+40.8598+16.243+46.3324+14.2216C51.8049+12.2002+57.88+14.9979+59.9014+20.4704Z" opacity="1" fill="#000000"/>
<path stroke="#000000" stroke-width="5" d="M43.8996+11.555L46.5357+17.1653" fill="none" stroke-linecap="round" opacity="1" stroke-linejoin="round"/>
<path stroke="#000000" stroke-width="5" d="M55.9773+11.3503L53.3029+16.6879" fill="none" stroke-linecap="round" opacity="1" stroke-linejoin="round"/>
<path d="M73.5477+25.5915C61.5065+27.6884+53.3321+34.7438+55.2896+41.3503C57.247+47.9567+68.5952+51.6124+80.6364+49.5155C89.681+47.9404+96.5439+43.5677+98.5701+38.6891C99.2414+37.0727+99.3817+35.4008+98.8946+33.7567C96.9371+27.1502+85.5889+23.4946+73.5477+25.5915Z" opacity="1" fill="#000000"/>
<path d="M64.625+34.9922C67.5497+42.9103+63.5018+51.7002+55.5837+54.625C47.6656+57.5497+38.8757+53.5018+35.9509+45.5837C33.0262+37.6656+37.0741+28.8757+44.9922+25.9509C52.9103+23.0262+61.7002+27.0741+64.625+34.9922Z" opacity="1" fill="#000000"/>
<path stroke="#000000" stroke-width="5" d="M40+65L60+65" fill="none" stroke-linecap="round" opacity="1" stroke-linejoin="round"/>
<path stroke="#000000" stroke-width="5" d="M40+77.5L60+77.5" fill="none" stroke-linecap="round" opacity="1" stroke-linejoin="round"/>
<path stroke="#000000" stroke-width="5" d="M62.6445+70.6612C62.299+83.3785+56.4017+93.1259+49.4726+92.4326C42.5434+91.7394+37.2063+80.868+37.5518+68.1507C37.8973+55.4334+43.7946+45.6859+50.7238+46.3792C57.653+47.0725+62.9901+57.9439+62.6445+70.6612Z" fill="none" stroke-linecap="round" opacity="1" stroke-linejoin="round"/>
<path stroke="#000000" stroke-width="5" d="M27.5+77.5L40+55" fill="none" stroke-linecap="round" opacity="1" stroke-linejoin="round"/>
<path stroke="#000000" stroke-width="5" d="M22.5+67.5L40+50" fill="none" stroke-linecap="round" opacity="1" stroke-linejoin="round"/>
<path d="M72.9232+33.3319C62.4062+30.9155+53.2836+33.9424+52.5474+40.0928C51.8112+46.2432+59.7401+53.1879+70.2571+55.6044C78.1568+57.4194+85.2697+56.1633+88.6328+52.8192C89.747+51.7112+90.4497+50.3741+90.6329+48.8434C91.3691+42.6931+83.4402+35.7483+72.9232+33.3319Z" opacity="1" fill="#000000"/>
<path d="M26.4523+25.5915C38.4935+27.6884+46.6679+34.7438+44.7104+41.3503C42.753+47.9567+31.4048+51.6124+19.3636+49.5155C10.319+47.9404+3.45611+43.5677+1.42994+38.6891C0.758622+37.0727+0.618257+35.4008+1.10541+33.7567C3.0629+27.1502+14.4111+23.4946+26.4523+25.5915Z" opacity="1" fill="#000000"/>
<path d="M27.0768+33.3319C37.5938+30.9155+46.7164+33.9424+47.4526+40.0928C48.1888+46.2432+40.2599+53.1879+29.7429+55.6044C21.8432+57.4194+14.7303+56.1633+11.3672+52.8192C10.253+51.7112+9.55034+50.3741+9.36712+48.8434C8.6309+42.6931+16.5598+35.7483+27.0768+33.3319Z" opacity="1" fill="#000000"/>
</g>
<g id="mythrole5" vectornator:layerName="mythrole5">
<path d="M32.5+37.5C32.5+27.835+40.335+20+50+20C59.665+20+67.5+27.835+67.5+37.5C67.5+47.165+59.665+55+50+55C40.335+55+32.5+47.165+32.5+37.5Z" opacity="1" fill="#000000"/>
<path d="M27.5+72.5C27.5+55+38.9543+42.5+50+42.5C61.0457+42.5+72.5+55+72.5+72.5C72.5+90+60+97.5+50+97.5C40+97.5+27.5+90+27.5+72.5Z" opacity="1" fill="#000000"/>
<path stroke="#000000" stroke-width="5" d="M42.5+15C45+22.5+45+20+47.5+25" fill="none" stroke-linecap="round" opacity="1" stroke-linejoin="round"/>
<path d="M40+31.8701C40+29.4565+41.954+27.5+44.3643+27.5C46.7746+27.5+48.7286+29.4565+48.7286+31.8701C48.7286+34.2836+46.7746+36.2401+44.3643+36.2401C41.954+36.2401+40+34.2836+40+31.8701Z" opacity="1" fill="#ffffff"/>
<path d="M51.5317+31.8622C51.5317+29.453+53.4274+27.5+55.7659+27.5C58.1043+27.5+60+29.453+60+31.8622C60+34.2713+58.1043+36.2244+55.7659+36.2244C53.4274+36.2244+51.5317+34.2713+51.5317+31.8622Z" opacity="1" fill="#ffffff"/>
<path stroke="#000000" stroke-width="5" d="M17.5+2.5C17.5+17.5+35+30+35+30" fill="none" stroke-linecap="round" opacity="1" stroke-linejoin="round"/>
<path stroke="#000000" stroke-width="5" d="M2.5+25C10+32.5+27.5+35+35+35" fill="none" stroke-linecap="round" opacity="1" stroke-linejoin="round"/>
<path stroke="#000000" stroke-width="5" d="M2.5+60C12.5+50+27.5+40+37.5+40" fill="none" stroke-linecap="round" opacity="1" stroke-linejoin="round"/>
<path stroke="#000000" stroke-width="5" d="M15+87.5C15+70+27.5+45+40+45" fill="none" stroke-linecap="round" opacity="1" stroke-linejoin="round"/>
<path stroke="#000000" stroke-width="5" d="M82.5+2.5C82.5+17.5+65+30+65+30" fill="none" stroke-linecap="round" opacity="1" stroke-linejoin="round"/>
<path stroke="#000000" stroke-width="5" d="M97.5+25C90+32.5+72.5+35+65+35" fill="none" stroke-linecap="round" opacity="1" stroke-linejoin="round"/>
<path stroke="#000000" stroke-width="5" d="M97.5+60C87.5+50+72.5+40+62.5+40" fill="none" stroke-linecap="round" opacity="1" stroke-linejoin="round"/>
<path stroke="#000000" stroke-width="5" d="M85+87.5C85+70+72.5+45+60+45" fill="none" stroke-linecap="round" opacity="1" stroke-linejoin="round"/>
<path stroke="#000000" stroke-width="5" d="M57.5+15C55+22.5+55+20+52.5+25" fill="none" stroke-linecap="round" opacity="1" stroke-linejoin="round"/>
</g>
<g id="mythrole4" vectornator:layerName="mythrole4">
<path d="M50+97.625L2.5+33.5L18.3333+5L81.6667+5L97.5+33.5L50+97.625Z" opacity="1" fill="#000000"/>
<path stroke="#ffffff" stroke-width="1" d="M2.5+33.5L54.9027+33.5L97.5+33.5" fill="none" stroke-linecap="round" opacity="1" stroke-linejoin="round"/>
<path stroke="#ffffff" stroke-width="1" d="M18.3333+5L50+97.625" fill="none" stroke-linecap="round" opacity="1" stroke-linejoin="round"/>
<path stroke="#ffffff" stroke-width="1" d="M81.6667+5L50+97.625" fill="none" stroke-linecap="round" opacity="1" stroke-linejoin="round"/>
<path stroke="#ffffff" stroke-width="1" d="M50+5L71.375+33.5" fill="none" stroke-linecap="round" opacity="1" stroke-linejoin="round"/>
<path stroke="#ffffff" stroke-width="1" d="M28.625+33.5L50+5" fill="none" stroke-linecap="round" opacity="1" stroke-linejoin="round"/>
</g>
<g id="mythrole3" vectornator:layerName="mythrole3">
<path d="M5+29.6795L5+13.9744C5+13.9744+10.0806+5+27.5+5C47.75+5+55.0806+21.2037+72.5+21.2037C89.9194+21.2037+95+12.2917+95+12.2917L95+26.875C95+26.875+89.9194+34.1667+72.5+34.1667C52.25+34.1667+44.9194+17.963+27.5+17.963C10.0806+17.963+5+29.6795+5+29.6795Z" opacity="1" fill="#000000"/>
<path d="M5+58.8462L5+43.141C5+43.141+10.0806+34.1667+27.5+34.1667C47.75+34.1667+55.0806+50.3704+72.5+50.3704C89.9194+50.3704+95+41.4583+95+41.4583L95+56.0417C95+56.0417+89.9194+63.3333+72.5+63.3333C52.25+63.3333+44.9194+47.1296+27.5+47.1296C10.0806+47.1296+5+58.8462+5+58.8462Z" opacity="1" fill="#000000"/>
<path d="M5+88.0128L5+72.3077C5+72.3077+10.0806+63.3333+27.5+63.3333C47.75+63.3333+55.0806+79.537+72.5+79.537C89.9194+79.537+95+70.625+95+70.625L95+85.2083C95+85.2083+89.9194+92.5+72.5+92.5C52.25+92.5+44.9194+76.2963+27.5+76.2963C10.0806+76.2963+5+88.0128+5+88.0128Z" opacity="1" fill="#000000"/>
</g>
<g id="mythrole2" vectornator:layerName="mythrole2">
<path d="M31.961+79.6187C31.961+69.6747+40.0222+61.6136+49.9662+61.6136C59.9102+61.6136+67.9713+69.6747+67.9713+79.6187C67.9713+89.5627+59.9102+97.6239+49.9662+97.6239C40.0222+97.6239+31.961+89.5627+31.961+79.6187Z" opacity="0" fill="#b6b8ff"/>
<path d="M32.0572+17.9414C32.0572+8.03262+40.0898+0+49.9985+0C59.9073+0+67.9399+8.03262+67.9399+17.9414C67.9399+27.8501+59.9073+35.8827+49.9985+35.8827C40.0898+35.8827+32.0572+27.8501+32.0572+17.9414Z" opacity="0" fill="#b6b8ff"/>
<path d="M5.43932+33.429C5.43932+23.511+13.4795+15.4708+23.3975+15.4708C33.3156+15.4708+41.3557+23.511+41.3557+33.429C41.3557+43.347+33.3156+51.3872+23.3975+51.3872C13.4795+51.3872+5.43932+43.347+5.43932+33.429Z" opacity="0" fill="#b6b8ff"/>
<path d="M5.43931+64.2393C5.43931+54.3213+13.4795+46.2811+23.3975+46.2811C33.3156+46.2811+41.3557+54.3213+41.3557+64.2393C41.3557+74.1573+33.3156+82.1975+23.3975+82.1975C13.4795+82.1975+5.43931+74.1573+5.43931+64.2393Z" opacity="0" fill="#b6b8ff"/>
<path d="M58.7613+33.2507C58.7613+23.3326+66.8015+15.2925+76.7195+15.2925C86.6375+15.2925+94.6777+23.3326+94.6777+33.2507C94.6777+43.1687+86.6375+51.2089+76.7195+51.2089C66.8015+51.2089+58.7613+43.1687+58.7613+33.2507Z" opacity="0" fill="#b6b8ff"/>
<path d="M58.8458+64.258C58.8458+54.3399+66.8859+46.2997+76.804+46.2997C86.722+46.2997+94.7622+54.3399+94.7622+64.258C94.7622+74.176+86.722+82.2162+76.804+82.2162C66.8859+82.2162+58.8458+74.176+58.8458+64.258Z" opacity="0" fill="#b6b8ff"/>
<path d="M50.069+79.6408L23.4274+64.2593L23.4274+33.4962L50.069+18.1147L76.7106+33.4963L76.7106+64.2593L50.069+79.6408Z" opacity="0" fill="#ffb6b6"/>
<path d="M50.1876+0.218648C60.1095+0.306453+67.3972+8.38443+67.6606+15.1453C67.7283+16.8826+67.9567+17.8895+67.9567+17.8895C67.9567+17.8895+69.6662+15.5+77.1456+15.4567C89.7617+15.3838+94.7704+27.2675+94.727+33.3424C94.6529+43.7137+85.9149+48.675+85.9149+48.675C85.9149+48.675+94.8752+53.0477+94.8752+64.9008C94.8752+74.0127+86.9485+82.0875+77.1699+82.3098C71.3888+82.4411+67.9567+79.4605+67.9567+79.4605C67.9567+79.4605+67.7994+79.985+67.7484+81.7009C67.485+90.5691+59.2545+97.5056+50.2754+97.5056C41.2963+97.5056+32.3634+90.3935+32.1878+81.2618C32.1519+79.3944+32.0403+79.4605+32.0403+79.4605C32.0403+79.4605+30.0395+82.3426+22.8521+82.1694C10.0192+81.8601+5.30351+69.8003+5.30351+64.1569C5.30351+53.8951+14.0655+48.8564+14.0655+48.8564C14.0655+48.8564+5.38746+43.9704+5.38746+33.3963C5.38746+24.6441+12.8987+15.7484+23.1082+15.4567C28.0745+15.3148+32.078+17.7903+32.078+17.7903C32.078+17.7903+32.3243+16.0635+32.3634+14.9697C32.6268+7.59419+40.5295+0.133179+50.1876+0.218648Z" opacity="1" fill="#000000"/>
<path stroke="#000000" stroke-width="1" d="M29.4827+49.1052C29.4827+37.7274+38.7062+28.5039+50.0839+28.5039C61.4616+28.5039+70.6851+37.7274+70.6851+49.1052C70.6851+60.4829+61.4616+69.7064+50.0839+69.7064C38.7062+69.7064+29.4827+60.4829+29.4827+49.1052Z" fill="#ffffff" stroke-linecap="round" opacity="1" stroke-linejoin="round"/>
</g>
<g id="mythrole1" vectornator:layerName="mythrole1">
<path d="M0+38.75C0+28.3947+8.39466+20+18.75+20C29.1053+20+37.5+28.3947+37.5+38.75C37.5+49.1053+29.1053+57.5+18.75+57.5C8.39466+57.5+0+49.1053+0+38.75Z" opacity="0" fill="#b6b8ff"/>
<path d="M30+25C30+11.1929+41.1929-8.29977e-06+55-8.29977e-06C68.8071-8.29977e-06+80+11.1929+80+25C80+38.8071+68.8071+50+55+50C41.1929+50+30+38.8071+30+25Z" opacity="0" fill="#b6b8ff"/>
<path d="M72.5+43.75C72.5+36.1561+78.6561+30+86.25+30C93.8439+30+100+36.1561+100+43.75C100+51.3439+93.8439+57.5+86.25+57.5C78.6561+57.5+72.5+51.3439+72.5+43.75Z" opacity="0" fill="#b6b8ff"/>
<path d="M55+0C30+0+30+25+30+25C30+25+27.5+20+17.5+20C7.5+20+0+27.5+0+37.5C0+52.5+10+57.5+20+57.5C27.5+57.5+65+57.5+87.5+57.5C95+57.5+99.917+51.3263+100+45C100.098+37.5006+95+30+87.5+30C82.5+30+79.2533+31.874+79.2533+31.874C79.2533+31.874+80.1055+30.4709+80+22.5C79.8617+12.0585+70.595+0+55+0" opacity="1" fill="#000000"/>
<path stroke="#000000" stroke-width="1" d="M40+67.5L20+97.5" fill="#000598" stroke-linecap="round" fill-opacity="0" opacity="1" stroke-linejoin="round"/>
<path stroke="#000000" stroke-width="1" d="M62.5+67.5L42.5+97.5" fill="#000598" stroke-linecap="round" fill-opacity="0" opacity="1" stroke-linejoin="round"/>
</g>
<g id="mythrole0" vectornator:layerName="mythrole0">
<path stroke="#000000" stroke-width="1" d="M50+97.5L62.5+77.5L37.5+77.5L50+57.5" fill="#000598" stroke-linecap="round" fill-opacity="0" opacity="1" stroke-linejoin="round"/>
<path d="M0+38.75C0+28.3947+8.39466+20+18.75+20C29.1053+20+37.5+28.3947+37.5+38.75C37.5+49.1053+29.1053+57.5+18.75+57.5C8.39466+57.5+0+49.1053+0+38.75Z" opacity="0" fill="#b6b8ff"/>
<path d="M30+25C30+11.1929+41.1929-8.29977e-06+55-8.29977e-06C68.8071-8.29977e-06+80+11.1929+80+25C80+38.8071+68.8071+50+55+50C41.1929+50+30+38.8071+30+25Z" opacity="0" fill="#b6b8ff"/>
<path d="M72.5+43.75C72.5+36.1561+78.6561+30+86.25+30C93.8439+30+100+36.1561+100+43.75C100+51.3439+93.8439+57.5+86.25+57.5C78.6561+57.5+72.5+51.3439+72.5+43.75Z" opacity="0" fill="#b6b8ff"/>
<path d="M55+0C30+0+30+25+30+25C30+25+27.5+20+17.5+20C7.5+20+0+27.5+0+37.5C0+52.5+10+57.5+20+57.5C27.5+57.5+65+57.5+87.5+57.5C95+57.5+99.917+51.3263+100+45C100.098+37.5006+95+30+87.5+30C82.5+30+79.2533+31.874+79.2533+31.874C79.2533+31.874+80.1055+30.4709+80+22.5C79.8617+12.0585+70.595+0+55+0" opacity="1" fill="#000000"/>
</g>
</svg>
