<?xml version="1.0" encoding="UTF-8" standalone="no"?> <!-- Created with Vectornator for iOS (http://vectornator.io/) --><!DOCTYPE svg PUBLIC "-//W3C//DTD SVG 1.1//EN" "http://www.w3.org/Graphics/SVG/1.1/DTD/svg11.dtd">
<svg width="100%" viewBox="0 0 200 200" xmlns="http://www.w3.org/2000/svg" xml:space="preserve" xmlns:vectornator="http://vectornator.io" height="100%" version="1.1" xmlns:xlink="http://www.w3.org/1999/xlink" style="fill-rule:nonzero;clip-rule:evenodd;stroke-linecap:round;stroke-linejoin:round;">
<metadata>
<vectornator:setting key="UndoHistoryDisabled" value="false"/>
<vectornator:setting value="false" key="WDSnapToPoints"/>
<vectornator:setting value="false" key="VNPencilOnly"/>
<vectornator:setting value="false" key="WDIsolateActiveLayer"/>
<vectornator:setting value="false" key="WDSnapToEdges"/>
<vectornator:setting key="WDUnits" value="Pixels"/>
<vectornator:setting value="false" key="WDOutlineMode"/>
<vectornator:setting value="true" key="WDRulersVisible"/>
<vectornator:setting key="WDDynamicGuides" value="false"/>
<vectornator:setting key="IsTimeLapseWatermarkDisabled" value="false"/>
<vectornator:setting key="VNSnapToGuides" value="true"/>
<vectornator:setting key="WDCMYKEnabledKey" value="false"/>
<vectornator:setting key="VNDimensionsVisible" value="true"/>
<vectornator:setting key="WDDisplayWhiteBackground" value="true"/>
<vectornator:setting key="WDGuidesVisible" value="true"/>
<vectornator:setting key="WDSnapToGrid" value="false"/>
</metadata>
<defs>
<radialGradient r="0" id="RadialGradient" cy="26.3741" gradientTransform="matrix(1.66036 0 0 1.66034 17.0045 -2.41233)" gradientUnits="userSpaceOnUse" cx="50.0349">
<stop offset="0.411765" stop-color="#ffef86"/>
<stop offset="1" stop-color="#ffc057"/>
</radialGradient>
<radialGradient cx="50.113" r="0" id="RadialGradient_2" cy="26.2528" gradientUnits="userSpaceOnUse" gradientTransform="matrix(1.66036 0 0 1.66034 17.0045 -2.41233)">
<stop offset="0.684874" stop-color="#fff6ba"/>
<stop offset="1" stop-color="#ffc057"/>
</radialGradient>
<radialGradient gradientTransform="matrix(-0.096089 -1.73013 1.75873 -0.0945244 -44.5903 149.487)" cx="23.228" id="RadialGradient_3" r="0" gradientUnits="userSpaceOnUse" cy="49.9713">
<stop offset="0.77521" stop-color="#ffef86"/>
<stop offset="1" stop-color="#ffc057"/>
</radialGradient>
<radialGradient id="RadialGradient_4" gradientTransform="matrix(-0.096089 -1.73013 1.75873 -0.0945244 -44.5903 149.487)" r="0" cy="46.3188" cx="34.6993" gradientUnits="userSpaceOnUse">
<stop stop-color="#fff6ba" offset="0"/>
<stop offset="0.978992" stop-color="#ffdb72"/>
</radialGradient>
<radialGradient id="RadialGradient_5" cy="54.122" r="0" cx="28.9752" gradientUnits="userSpaceOnUse" gradientTransform="matrix(-0.096089 -1.73013 1.75873 -0.0945244 -44.5903 149.487)">
<stop stop-color="#fff6ba" offset="0"/>
<stop stop-color="#ffdb72" offset="1"/>
</radialGradient>
</defs>
<g vectornator:layerName="sun-moon-plate" id="sun-moon-plate">
<path fill="#2b5bc5" opacity="1" d="M-0.0784783+0.0456815L100.038+100.128L0.182885+199.944L-0.0784783+0.0456815Z"/>
<path opacity="1" fill="#73c5ff" d="M-0.0784783+0.0456815L100.042+100.106L200.163-0.0270554L-0.0784783+0.0456815Z"/>
<path stroke-width="0.6" d="M95.9688+21.6247L104.324+21.719C104.324+21.719+104.529+19.3709+106.292+17.2463C108.698+14.3458+109.756+15.729+111.409+12.7021C112.988+9.80917+113.103+8.67888+114.093+7.58534C113.651+11.118+114.565+11.399+113.878+14.348C113.432+16.2629+111.997+16.6892+111.302+19.0712C110.606+21.4531+111.624+24.5457+111.624+24.5457L116.863+30.6649C116.863+30.6649+119.679+28.701+122.203+28.7661C125.114+28.8412+124.868+29.5776+127.828+29.1998C130.08+28.9123+130.511+27.5227+133.685+27.52C131.515+29.1678+132.604+29.9371+129.888+31.7033C127.171+33.4695+125.965+32.3247+123.776+33.5427C121.586+34.7608+120.097+37.4887+120.097+37.4887L119.621+45.6656C119.621+45.6656+122.499+46.3864+124.459+47.9861C126.419+49.5857+125.944+50.7363+128.357+52.7488C130.77+54.7613+130.958+52.9673+133.805+55.5006C130.614+55.3639+130.681+55.9002+128.112+55.5531C124.943+55.1248+125.367+53.6857+122.411+52.722C120.701+52.1643+116.73+52.6708+116.73+52.6708L111.004+58.3657C111.004+58.3657+112.569+60.6787+112.794+63.1454C113.019+65.6121+111.862+65.5901+112.141+68.8149C112.419+72.0397+113.518+71.2344+113.982+75.2871C112.556+73.2483+110.941+72.6046+109.942+71.0675C108.277+68.5065+109.209+67.4076+107.986+65.2271C106.763+63.0466+103.957+61.1692+103.957+61.1692L95.9701+61.0252C95.9701+61.0252+95.5472+63.5964+93.9263+65.67C92.3054+67.7437+91.1764+67.0743+89.1487+69.4655C87.1209+71.8568+88.8598+72.686+85.9901+75.5967C86.3548+71.0847+85.7086+71.7149+86.2556+68.9347C86.8852+65.7341+88.8312+65.8127+88.9894+63.2812C89.1717+60.3643+89.25+58.1852+89.25+58.1852L83.0923+51.9185C83.0923+51.9185+81.5413+53.9877+78.8476+54.237C76.1538+54.4864+75.401+53.203+73.0745+53.4185C69.8975+53.7126+70.9368+55.3115+66.5259+55.271C69.6014+52.1551+69.9519+51.417+72.299+50.4458C75.4588+49.1383+74.397+49.9663+77.2104+48.9379C79.6609+48.0422+80.8294+45.5344+80.8294+45.5344L80.6642+37.2882C80.6642+37.2882+77.4642+37.1155+75.5357+35.4474C73.6073+33.7794+74.4962+31.6618+71.0496+29.8524C68.7047+28.6213+66.3966+27.6121+66.3966+27.6121C66.3966+27.6121+69.7924+26.5651+72.6436+27.3967C75.7456+28.3014+75.4265+29.704+78.5087+30.4489C80.7709+30.9956+83.2341+30.366+83.2341+30.366L89.1615+24.7703C89.1615+24.7703+87.6558+21.9555+87.5034+19.4659C87.3511+16.9762+88.2658+15.938+88.004+14.2336C87.5052+10.987+86.2198+9.42355+86.1516+7.8127C88.6005+10.0333+89.9024+11.0097+90.744+12.9239C92.1566+16.137+91.1054+15.771+92.3456+18.002C93.5857+20.233+95.9688+21.6247+95.9688+21.6247Z" stroke-linecap="round" opacity="1" stroke-linejoin="round" stroke="#000000" fill="#fffa7d"/>
<path d="M107.84+23.0077C107.84+23.0077+107.579+20.3081+108.694+18.2038C109.808+16.0995+111.055+16.391+112.254+14.1315C113.452+11.872+113.488+9.16569+113.488+9.16569" stroke-width="0.6" fill="none" stroke="#000000" stroke-linecap="round" opacity="1" stroke-linejoin="round"/>
<path stroke-linejoin="round" stroke-linecap="round" d="M118.588+33.669C118.588+33.669+120.096+31.7308+122.489+31.0686C124.883+30.4064+126.305+31.3017+128.874+30.4705C131.442+29.6394+131.242+27.5586+133.121+27.6102" opacity="1" stroke-width="0.6" stroke="#000000" fill="none"/>
<path stroke-linecap="round" stroke-linejoin="round" d="M118.532+48.949C118.532+48.949+121.198+48.5256+123.198+49.875C125.72+51.577+124.857+52.152+127.445+53.877C129.761+55.4212+133.088+54.9929+133.088+54.9929" opacity="1" fill="none" stroke="#000000" stroke-width="0.6"/>
<path stroke-width="0.6" fill="none" stroke="#000000" stroke-linecap="round" stroke-linejoin="round" opacity="1" d="M107.72+59.7461C107.72+59.7461+109.663+61.4129+110.361+63.6603C111.058+65.9078+110.029+66.8678+110.779+69.3099C111.528+71.752+113.403+73.6957+113.403+73.6957"/>
<path stroke="#000000" stroke-width="0.6" stroke-linejoin="round" stroke-linecap="round" opacity="1" fill="none" d="M92.4786+59.6944C92.4786+59.6944+92.6616+62.0132+91.4509+64.2844C90.2402+66.5555+88.3299+66.6919+87.5248+69.1024C86.5291+72.0836+86.5963+74.4608+86.5963+74.4608"/>
<path stroke-linecap="round" fill="none" d="M81.7321+48.9997C81.7321+48.9997+80.6096+50.6716+78.1104+51.4118C75.6112+52.1521+75.1833+51.0075+72.4708+51.9245C69.7584+52.8416+67.3172+55.1995+67.3172+55.1995" opacity="1" stroke-width="0.6" stroke-linejoin="round" stroke="#000000"/>
<path stroke-width="0.6" d="M81.9904+33.7067C81.9904+33.7067+80.1791+33.7221+77.4771+32.8355C75.1935+32.0862+75.4491+30.1907+72.7485+28.9091C70.0478+27.6275+67.2656+27.9202+67.2656+27.9202" opacity="1" stroke-linecap="round" fill="none" stroke="#000000" stroke-linejoin="round"/>
<path stroke-width="0.6" stroke="#000000" stroke-linejoin="round" d="M92.6852+22.857C92.6852+22.857+90.6573+21.2812+89.9986+19.0338C89.3399+16.7863+90.0239+16.0135+89.5996+13.7372C89.122+11.1753+86.7953+9.11402+86.7953+9.11402" fill="none" opacity="1" stroke-linecap="round"/>
<path d="M80.0132+41.3686C80.0132+30.3004+88.9859+21.3278+100.054+21.3278C106.179+21.3278+111.662+24.0753+115.338+28.4051C118.305+31.8997+120.095+36.4251+120.095+41.3686C120.095+52.4369+111.123+61.4094+100.054+61.4094C88.9859+61.4094+80.0132+52.4369+80.0132+41.3686Z" stroke-width="0.6" fill="#ffc057" stroke-linejoin="round" stroke="#000000" stroke-linecap="round" opacity="1"/>
<path stroke-width="0.6" stroke-linecap="round" fill="url(#RadialGradient)" stroke-linejoin="round" stroke="#000000" d="M100.131+2.08293L96.2097+23.8588L91.1183+26.1687L72.5576+13.6453L85.131+32.0561L83.1851+36.7462L60.8632+41.1854L83.1687+45.6618L85.1245+50.1909L72.3742+69.0376L91.1462+56.4699L96.0549+58.4319L100.286+80.6722L104.579+58.5285L109.213+56.3162L127.945+69.1134L115.509+50.2272L117.343+45.8676L139.298+41.3002L117.367+37.172L115.56+32.9407L127.893+13.5901L109.317+26.0261L104.518+24.0652L100.131+2.08293Z" opacity="1"/>
<path opacity="1" stroke="#000000" stroke-width="0.6" fill="none" stroke-linecap="round" stroke-linejoin="round" d="M100.132+23.8226L100.132+2.66327"/>
<path d="M112.375+29.1124L126.837+14.7787" stroke-width="0.6" opacity="1" stroke-linejoin="round" fill="none" stroke-linecap="round" stroke="#000000"/>
<path d="M117.58+41.3131L137.246+41.2278" opacity="1" stroke="#000000" fill="none" stroke-linejoin="round" stroke-width="0.6" stroke-linecap="round"/>
<path fill="none" d="M112.519+53.7698L126.852+67.9756" stroke-width="0.6" stroke-linejoin="round" opacity="1" stroke="#000000" stroke-linecap="round"/>
<path stroke-width="0.6" stroke-linejoin="round" d="M100.062+58.889L100.36+78.4699" stroke-linecap="round" stroke="#000000" fill="none" opacity="1"/>
<path stroke-linecap="round" fill="none" opacity="1" stroke-width="0.6" stroke-linejoin="round" d="M87.8182+53.7698L73.3563+68.2742" stroke="#000000"/>
<path stroke-width="0.6" d="M82.6433+41.2499L62.2869+41.2499" stroke-linejoin="round" stroke-linecap="round" stroke="#000000" fill="#ffffff" fill-opacity="0.401154" opacity="1"/>
<path stroke-linejoin="round" stroke-linecap="round" stroke="#000000" fill-opacity="0.401154" stroke-width="0.6" d="M87.8098+29.0569L73.6534+14.9005" fill="#ffffff" opacity="1"/>
<path stroke-width="0.6" fill="url(#RadialGradient_2)" opacity="1" d="M82.597+41.1763C82.597+31.4489+90.4827+23.5633+100.21+23.5633C109.938+23.5633+117.823+31.4489+117.823+41.1763C117.823+50.9036+109.938+58.7892+100.21+58.7892C90.4827+58.7892+82.597+50.9036+82.597+41.1763Z" stroke-linecap="round" stroke-linejoin="round" stroke="#000000"/>
<path stroke-linejoin="round" opacity="1" stroke-width="0.6" d="M87.8852+34.7806C87.8852+34.7806+89.9828+33.1521+92.9539+33.2153C96.4574+33.2898+98.7989+35.9702+98.7681+39.4766C98.7309+43.7254+96.7833+43.9057+96.7183+45.4026C96.681+46.2598+97.9482+46.2598+97.9482+46.2598C97.9482+46.2598+98.9918+47.3406+100.11+47.3779C101.228+47.4151+102.421+46.4089+102.421+46.4089C102.421+46.4089+103.725+46.4834+103.762+45.5144C103.8+44.5454+101.787+43.8745+101.787+39.663C101.787+35.5633+105.064+33.2585+108.011+33.2898C111.515+33.3271+112.446+34.7806+112.446+34.7806" stroke-linecap="round" stroke="#000000" fill="none"/>
<path d="M94.8547+49.9868C96.9791+51.1049+97.7618+49.6514+100.222+50.6949C102.682+49.465+104.582+51.2912+105.775+49.9122" stroke-width="0.6" stroke="#000000" stroke-linecap="round" stroke-linejoin="round" opacity="1" fill="none"/>
<path stroke="#000000" stroke-linecap="round" stroke-width="0.6" fill="none" stroke-linejoin="round" opacity="1" d="M96.9791+51.9621C96.9791+51.9621+98.5631+52.8659+100.259+52.8566C101.955+52.8473+103.576+51.9248+103.576+51.9248"/>
<path d="M88.2579+38.7685C88.2579+38.7685+89.3387+36.7932+92.5067+36.7559C94.744+36.7296+96.271+38.9549+96.271+38.9549C96.271+38.9549+94.5288+40.6693+92.6185+40.6693C89.376+40.6693+88.2579+38.7685+88.2579+38.7685Z" stroke-linejoin="round" fill="#ffffff" opacity="1" stroke="#000000" stroke-linecap="round" stroke-width="0.6"/>
<path stroke-linecap="round" stroke-width="0.6" d="M104.098+38.9921C104.098+38.9921+105.104+36.8677+108.16+36.7187C110.887+36.5856+111.999+38.8058+111.999+38.8058C111.999+38.8058+110.881+40.7438+107.937+40.632C104.882+40.516+104.098+38.9921+104.098+38.9921Z" stroke="#000000" fill="#ffffff" opacity="1" stroke-linejoin="round"/>
<path stroke-width="0.4" d="M89.1151+36.4578C89.1151+36.4578+90.0841+35.4887+92.544+35.4887C94.0444+35.4887+95.5629+36.6068+95.5629+36.6068" fill="none" stroke-linejoin="round" opacity="1" stroke-linecap="round" stroke="#000000"/>
<path d="M104.843+36.6441C104.843+36.6441+105.887+35.5535+108.086+35.526C111.067+35.4887+111.738+36.6814+111.738+36.6814" opacity="1" stroke-width="0.4" fill="none" stroke-linecap="round" stroke="#000000" stroke-linejoin="round"/>
<path stroke="#000000" stroke-linecap="round" stroke-linejoin="round" opacity="1" fill="#72c2ff" stroke-width="0.4" d="M90.4195+38.6008C90.4195+37.551+91.2706+36.7+92.3203+36.7C93.3701+36.7+94.2211+37.551+94.2211+38.6008C94.2211+39.6505+93.3701+40.5015+92.3203+40.5015C91.2706+40.5015+90.4195+39.6505+90.4195+38.6008Z"/>
<path stroke-linejoin="round" opacity="1" d="M105.887+38.6887C105.887+37.5904+106.778+36.7+107.876+36.7C108.974+36.7+109.865+37.5904+109.865+38.6887C109.865+39.787+108.974+40.6773+107.876+40.6773C106.778+40.6773+105.887+39.787+105.887+38.6887Z" stroke-width="0.4" stroke="#000000" fill="#72c2ff" stroke-linecap="round"/>
<path stroke-linecap="round" stroke-linejoin="round" stroke="#000000" stroke-width="0.6" opacity="1" d="M91.3663+38.2603C91.3663+37.718+91.806+37.2783+92.3483+37.2783C92.8906+37.2783+93.3302+37.718+93.3302+38.2603C93.3302+38.8026+92.8906+39.2422+92.3483+39.2422C91.806+39.2422+91.3663+38.8026+91.3663+38.2603Z" fill="#000000"/>
<path fill="#000000" stroke-linejoin="round" d="M106.966+38.2232C106.966+37.6809+107.406+37.2413+107.948+37.2413C108.49+37.2413+108.93+37.6809+108.93+38.2232C108.93+38.7655+108.49+39.2051+107.948+39.2051C107.406+39.2051+106.966+38.7655+106.966+38.2232Z" opacity="1" stroke="#000000" stroke-linecap="round" stroke-width="0.6"/>
<path fill="#f5f5f5" opacity="1" d="M91.2639+37.62C91.2639+37.2618+91.5542+36.9715+91.9124+36.9715C92.2705+36.9715+92.5608+37.2618+92.5608+37.62C92.5608+37.9781+92.2705+38.2684+91.9124+38.2684C91.5542+38.2684+91.2639+37.9781+91.2639+37.62Z"/>
<path opacity="1" fill="#f5f5f5" d="M106.827+37.62C106.827+37.2618+107.117+36.9715+107.475+36.9715C107.833+36.9715+108.124+37.2618+108.124+37.62C108.124+37.9781+107.833+38.2684+107.475+38.2684C107.117+38.2684+106.827+37.9781+106.827+37.62Z"/>
<path stroke-width="0.6" opacity="1" stroke-linecap="round" stroke="#000000" d="M16.3281+78.5105C16.3281+78.5105+7.10549+85.4053+7.84883+101.674C8.59795+118.068+22.1984+133.28+42.8175+132.585C62.6348+131.917+75.0385+114.021+73.7349+97.8148C72.4953+82.4038+61.8337+75.3502+61.8337+75.3502C61.8337+75.3502+67.1385+79.0042+67.412+88.5983C67.9228+106.514+57.1988+108.152+57.1988+108.152L53.4255+108.513L52.3284+110.557L50.0107+108.062L47.0188+109.413L46.4434+106.319C46.4434+106.319+46.1642+104.175+43.3342+104.104C41.3137+104.054+38.6702+108.772+33.5219+109.078C32.6355+109.13+14.8356+109.765+13.3693+90.6295C12.8238+83.5107+16.3281+78.5105+16.3281+78.5105Z" fill="url(#RadialGradient_3)" stroke-linejoin="round"/>
<path fill="#f7f7f7" d="M35.7763+119.025L36.9271+116.717L34.3858+115.37L31.2965+115.671L31.9442+118.288L35.7763+119.025Z" opacity="1"/>
<path stroke="#000000" stroke-linejoin="round" stroke-linecap="round" fill="none" stroke-width="0.6" opacity="1" d="M26.3482+122.326C26.3482+122.326+24.4131+119.749+24.709+116.062C25.0038+112.387+26.8636+111.262+26.8636+111.262"/>
<path d="M51.0239+117.585C51.0239+117.585+52.4506+115.663+52.5875+113.77C52.7245+111.877+52.146+110.426+52.146+110.426" stroke-linejoin="round" fill="none" stroke-linecap="round" stroke="#000000" opacity="1" stroke-width="0.6"/>
<path opacity="1" fill="none" stroke-width="0.6" stroke="#000000" d="M45.6149+117.558C45.6149+117.558+44.2819+116.082+42.9168+115.48C41.5517+114.879+40.1545+115.152+40.1545+115.152" stroke-linejoin="round" stroke-linecap="round"/>
<path stroke-width="0.6" stroke-linecap="round" stroke-linejoin="round" stroke="#000000" d="M47.0343+109.479C47.0343+109.479+46.8838+110.622+46.1566+111.25C45.4294+111.877+44.1256+111.99+44.1256+111.99" opacity="1" fill="none"/>
<path stroke-width="0.6" stroke-linecap="round" fill="#73c5ff" opacity="1" stroke="#000000" d="M36.1491+118.648C36.1491+118.648+35.3354+118.219+34.0907+118.138C32.9956+118.067+31.8967+118.379+31.8967+118.379C31.8967+118.379+32.3062+120.952+34.6219+122.82C35.4362+120.207+36.1491+118.648+36.1491+118.648Z" stroke-linejoin="round"/>
<path stroke-linejoin="round" d="M31.4444+113.698C31.4444+113.698+30.9901+115.445+31.828+118.271C32.6659+121.097+34.6865+123.03+34.6865+123.03C34.6865+123.03+35.2327+120.895+36.0769+118.872C36.9211+116.849+38.0634+114.938+38.0634+114.938" stroke-linecap="round" opacity="1" stroke="#000000" stroke-width="0.6" fill="none"/>
<path opacity="1" stroke-linejoin="round" stroke-linecap="round" stroke-width="0.6" fill="none" stroke="#000000" d="M37.1506+116.588C37.1506+116.588+35.1813+115.3+33.4796+115.312C31.7778+115.323+29.4413+116.167+29.4413+116.167"/>
<path stroke-linejoin="round" stroke-linecap="round" fill="url(#RadialGradient_4)" d="M25.3632+85.4224C25.3632+85.4224+28.0327+85.0049+30.6439+83.5401C32.8179+82.3207+33.7456+80.0396+33.7456+80.0396C33.7456+80.0396+34.2558+81.7019+36.0956+83.0645C37.911+84.409+41.7023+84.5442+41.7023+84.5442C41.7023+84.5442+37.9287+85.3522+36.1102+86.6715C34.2917+87.9909+34.1631+90.0644+34.1631+90.0644C34.1631+90.0644+33.0237+87.4993+30.677+86.6439C28.1657+85.7284+25.3632+85.4224+25.3632+85.4224Z" opacity="1" stroke="#000000" stroke-width="0.6"/>
<path stroke="#000000" opacity="1" stroke-linecap="round" d="M42.4362+94.415C42.4362+94.415+44.4603+93.8724+45.6517+92.9635C46.8431+92.0546+47.2017+90.7794+47.2017+90.7794C47.2017+90.7794+47.9057+91.9632+49.3983+92.7164C50.8909+93.4697+53.172+93.7924+53.172+93.7924C53.172+93.7924+50.9404+94.1521+49.54+95.2663C48.1395+96.3806+47.7274+97.7385+47.7274+97.7385C47.7274+97.7385+47.1569+96.0338+45.7293+95.1971C44.3017+94.3604+42.4362+94.415+42.4362+94.415Z" stroke-linejoin="round" stroke-width="0.6" fill="url(#RadialGradient_5)"/>
<path d="M35.4307+119.994C35.4307+119.994+34.8981+119.701+34.0842+119.644C33.3681+119.595+32.6501+119.805+32.6501+119.805C32.6501+119.805+32.9216+121.556+34.4384+122.83C34.9669+121.054+35.4307+119.994+35.4307+119.994Z" opacity="1" fill="#000000"/>
<path fill="#f5f5f5" d="M33.4858+120.115C33.1065+120.135+32.7821+119.849+32.7614+119.476C32.7407+119.103+33.0314+118.784+33.4107+118.763C33.7901+118.743+34.1144+119.029+34.1351+119.402C34.1559+119.775+33.8651+120.094+33.4858+120.115Z" opacity="1"/>
<path stroke-width="0.5" stroke="#000000" stroke-linecap="round" opacity="0" fill="#f5f5f5" d="M58.5+41.5C58.5+18.5802+77.0802+0+100+0C122.92+0+141.5+18.5802+141.5+41.5C141.5+64.4198+122.92+83+100+83C77.0802+83+58.5+64.4198+58.5+41.5Z" fill-opacity="0.632882" stroke-linejoin="round"/>
<path stroke="#000000" fill-opacity="0.632882" stroke-linecap="round" opacity="0" stroke-linejoin="round" d="M0+100C0+77.0802+18.5802+58.5+41.5+58.5C64.4198+58.5+83+77.0802+83+100C83+122.92+64.4198+141.5+41.5+141.5C18.5802+141.5+0+122.92+0+100Z" stroke-width="0.5" fill="#f5f5f5"/>
</g>
</svg>
